<svg xmlns="http://www.w3.org/2000/svg" width="128" height="128" viewBox="0 0 128 128" role="img">
  <defs>
    <filter id="softShadow" x="-20%" y="-20%" width="140%" height="150%">
      <feDropShadow dx="0" dy="5" stdDeviation="5" flood-color="#7a4a14" flood-opacity="0.24"/>
    </filter>
    <linearGradient id="panelGrad" x1="0" x2="0" y1="0" y2="1">
      <stop offset="0" stop-color="#fffaf0"/>
      <stop offset="1" stop-color="#f5dfaa"/>
    </linearGradient>
    <linearGradient id="woodGrad" x1="0" x2="0" y1="0" y2="1">
      <stop offset="0" stop-color="#c77b31"/>
      <stop offset="1" stop-color="#8f541f"/>
    </linearGradient>
    
  </defs>
  <circle cx="64" cy="62" r="51" fill="none" stroke="#ffe58a" stroke-width="6"/><circle cx="102" cy="26" r="17" fill="#ffd45a" stroke="#8b5a12" stroke-width="4"/>
  <path d="M102 15 L106 23 L115 26 L106 30 L102 39 L98 30 L89 26 L98 23 Z" fill="#fff8c9"/><rect x="28" y="62" width="34" height="42" rx="5" fill="#f0c771" stroke="#a86822" stroke-width="5"/>
    <path d="M24 63 L45 42 L67 63 Z" fill="#d98839" stroke="#a86822" stroke-width="4"/>
    <rect x="66" y="48" width="36" height="56" rx="6" fill="#deaa55" stroke="#a86822" stroke-width="5"/>
    <path d="M62 50 L84 27 L106 50 Z" fill="#d85f3a" stroke="#a86822" stroke-width="4"/><text x="64" y="121" text-anchor="middle" font-family="Arial, PingFang SC, sans-serif" font-size="17" font-weight="800" fill="#5a2d10" stroke="none" stroke-width="0" paint-order="stroke">高级小镇</text>
</svg>
