<svg xmlns="http://www.w3.org/2000/svg" width="128" height="128" viewBox="0 0 128 128" role="img">
  <defs>
    <filter id="softShadow" x="-20%" y="-20%" width="140%" height="150%">
      <feDropShadow dx="0" dy="5" stdDeviation="5" flood-color="#7a4a14" flood-opacity="0.24"/>
    </filter>
    <linearGradient id="panelGrad" x1="0" x2="0" y1="0" y2="1">
      <stop offset="0" stop-color="#fffaf0"/>
      <stop offset="1" stop-color="#f5dfaa"/>
    </linearGradient>
    <linearGradient id="woodGrad" x1="0" x2="0" y1="0" y2="1">
      <stop offset="0" stop-color="#c77b31"/>
      <stop offset="1" stop-color="#8f541f"/>
    </linearGradient>
    
  </defs>
  <circle cx="64" cy="62" r="51" fill="none" stroke="#ffe58a" stroke-width="6"/><circle cx="102" cy="26" r="17" fill="#ffd45a" stroke="#8b5a12" stroke-width="4"/>
  <path d="M102 15 L106 23 L115 26 L106 30 L102 39 L98 30 L89 26 L98 23 Z" fill="#fff8c9"/><rect x="30" y="56" width="68" height="48" rx="7" fill="#9eb8d8" stroke="#667c9f" stroke-width="5"/>
    <path d="M29 56 L43 28 L58 56 Z" fill="#3c7bc1" stroke="#667c9f" stroke-width="4"/>
    <path d="M72 56 L87 25 L103 56 Z" fill="#3c7bc1" stroke="#667c9f" stroke-width="4"/>
    <rect x="56" y="82" width="18" height="22" rx="8" fill="#704217"/><text x="64" y="121" text-anchor="middle" font-family="Arial, PingFang SC, sans-serif" font-size="17" font-weight="800" fill="#5a2d10" stroke="none" stroke-width="0" paint-order="stroke">高级城堡</text>
</svg>
