<svg xmlns="http://www.w3.org/2000/svg" width="150" height="176" viewBox="0 0 150 176" role="img">
  <defs>
    <filter id="softShadow" x="-20%" y="-20%" width="140%" height="150%">
      <feDropShadow dx="0" dy="5" stdDeviation="5" flood-color="#7a4a14" flood-opacity="0.24"/>
    </filter>
    <linearGradient id="panelGrad" x1="0" x2="0" y1="0" y2="1">
      <stop offset="0" stop-color="#fffaf0"/>
      <stop offset="1" stop-color="#f5dfaa"/>
    </linearGradient>
    <linearGradient id="woodGrad" x1="0" x2="0" y1="0" y2="1">
      <stop offset="0" stop-color="#c77b31"/>
      <stop offset="1" stop-color="#8f541f"/>
    </linearGradient>
    
  </defs>
  <rect x="6" y="6" width="138" height="164" rx="18" fill="url(#panelGrad)" stroke="#d3ad61" stroke-width="5" filter="url(#softShadow)"/>
  <rect x="18" y="18" width="114" height="140" rx="13" fill="none" stroke="#fffaf0" stroke-width="2" opacity="0.7"/><g transform="translate(20 -4)"><path d="M18 8 H92 L76 31 L92 54 H18 L34 31 Z" fill="#5a91c7" stroke="#5a2d10" stroke-width="4" filter="url(#softShadow)"/>
  <text x="55" y="39" text-anchor="middle" font-family="Arial, PingFang SC, sans-serif" font-size="26" font-weight="800" fill="#fffaf0" stroke="#5a2d10" stroke-width="4" paint-order="stroke">下一个</text></g><g transform="translate(11 34)">
  <defs>
    <filter id="softShadow" x="-20%" y="-20%" width="140%" height="150%">
      <feDropShadow dx="0" dy="5" stdDeviation="5" flood-color="#7a4a14" flood-opacity="0.24"/>
    </filter>
    <linearGradient id="panelGrad" x1="0" x2="0" y1="0" y2="1">
      <stop offset="0" stop-color="#fffaf0"/>
      <stop offset="1" stop-color="#f5dfaa"/>
    </linearGradient>
    <linearGradient id="woodGrad" x1="0" x2="0" y1="0" y2="1">
      <stop offset="0" stop-color="#c77b31"/>
      <stop offset="1" stop-color="#8f541f"/>
    </linearGradient>
    
  </defs>
  <rect x="57" y="66" width="15" height="38" rx="6" fill="#8a5b2b"/>
    <circle cx="64" cy="48" r="40" fill="#78b948" stroke="#4c822f" stroke-width="5"/>
    <circle cx="47" cy="42" r="14" fill="#a7d85e" opacity="0.7"/><circle cx="79" cy="50" r="13" fill="#a7d85e" opacity="0.7"/><text x="64" y="121" text-anchor="middle" font-family="Arial, PingFang SC, sans-serif" font-size="17" font-weight="800" fill="#5a2d10" stroke="none" stroke-width="0" paint-order="stroke">小树</text>
</g>
</svg>
