<svg xmlns="http://www.w3.org/2000/svg" width="150" height="176" viewBox="0 0 150 176" role="img">
  <defs>
    <filter id="softShadow" x="-20%" y="-20%" width="140%" height="150%">
      <feDropShadow dx="0" dy="5" stdDeviation="5" flood-color="#7a4a14" flood-opacity="0.24"/>
    </filter>
    <linearGradient id="panelGrad" x1="0" x2="0" y1="0" y2="1">
      <stop offset="0" stop-color="#fffaf0"/>
      <stop offset="1" stop-color="#f5dfaa"/>
    </linearGradient>
    <linearGradient id="woodGrad" x1="0" x2="0" y1="0" y2="1">
      <stop offset="0" stop-color="#c77b31"/>
      <stop offset="1" stop-color="#8f541f"/>
    </linearGradient>
    
  </defs>
  <rect x="6" y="6" width="138" height="164" rx="18" fill="url(#panelGrad)" stroke="#d3ad61" stroke-width="5" filter="url(#softShadow)"/>
  <rect x="18" y="18" width="114" height="140" rx="13" fill="none" stroke="#fffaf0" stroke-width="2" opacity="0.7"/><g transform="translate(20 -4)"><path d="M18 8 H92 L76 31 L92 54 H18 L34 31 Z" fill="#87b842" stroke="#5a2d10" stroke-width="4" filter="url(#softShadow)"/>
  <text x="55" y="39" text-anchor="middle" font-family="Arial, PingFang SC, sans-serif" font-size="26" font-weight="800" fill="#fffaf0" stroke="#5a2d10" stroke-width="4" paint-order="stroke">当前</text></g><g transform="translate(11 34)">
  <defs>
    <filter id="softShadow" x="-20%" y="-20%" width="140%" height="150%">
      <feDropShadow dx="0" dy="5" stdDeviation="5" flood-color="#7a4a14" flood-opacity="0.24"/>
    </filter>
    <linearGradient id="panelGrad" x1="0" x2="0" y1="0" y2="1">
      <stop offset="0" stop-color="#fffaf0"/>
      <stop offset="1" stop-color="#f5dfaa"/>
    </linearGradient>
    <linearGradient id="woodGrad" x1="0" x2="0" y1="0" y2="1">
      <stop offset="0" stop-color="#c77b31"/>
      <stop offset="1" stop-color="#8f541f"/>
    </linearGradient>
    
  </defs>
  <rect x="24" y="52" width="80" height="44" rx="10" fill="#88c446" stroke="#639b2f" stroke-width="5"/>
    <circle cx="53" cy="65" r="6" fill="#fff4c4"/><circle cx="74" cy="76" r="6" fill="#fff4c4"/><circle cx="89" cy="62" r="4" fill="#fff4c4"/><text x="64" y="121" text-anchor="middle" font-family="Arial, PingFang SC, sans-serif" font-size="17" font-weight="800" fill="#5a2d10" stroke="none" stroke-width="0" paint-order="stroke">草地</text>
</g>
</svg>
