<svg xmlns="http://www.w3.org/2000/svg" width="440" height="140" viewBox="0 0 440 140" role="img">
  <defs>
    <filter id="softShadow" x="-20%" y="-20%" width="140%" height="150%">
      <feDropShadow dx="0" dy="5" stdDeviation="5" flood-color="#7a4a14" flood-opacity="0.24"/>
    </filter>
    <linearGradient id="panelGrad" x1="0" x2="0" y1="0" y2="1">
      <stop offset="0" stop-color="#fffaf0"/>
      <stop offset="1" stop-color="#f5dfaa"/>
    </linearGradient>
    <linearGradient id="woodGrad" x1="0" x2="0" y1="0" y2="1">
      <stop offset="0" stop-color="#c77b31"/>
      <stop offset="1" stop-color="#8f541f"/>
    </linearGradient>
    
  </defs>
  <path d="M60 48 C35 32 17 51 25 77 C5 82 7 113 38 119 H402 C432 113 434 82 415 76 C423 49 402 31 380 48 C334 16 274 22 247 46 C211 18 149 19 116 48 Z" fill="#6da33f" opacity="0.9"/>
  <rect x="55" y="36" width="330" height="80" rx="20" fill="url(#woodGrad)" stroke="#704217" stroke-width="6" filter="url(#softShadow)"/>
  <path d="M82 61 H358 M96 88 H345" stroke="#d08a3e" stroke-width="5" opacity="0.8"/>
  <text x="220" y="91" text-anchor="middle" font-family="Arial, PingFang SC, sans-serif" font-size="56" font-weight="800" fill="#fffaf0" stroke="#5a2d10" stroke-width="4" paint-order="stroke">童年小镇</text>
  <circle cx="94" cy="108" r="10" fill="#ffd45a"/><circle cx="346" cy="108" r="10" fill="#ffd45a"/>
</svg>
